<svg width="56" height="56" viewBox="0 0 56 56" fill="none" xmlns="http://www.w3.org/2000/svg">
<rect width="56" height="56" rx="8" fill="#EEF6FF"/>
<path fill-rule="evenodd" clip-rule="evenodd" d="M42.7475 39.5833H14.4242V14.2083C14.4242 13.5409 13.8816 13 13.2121 13C12.5426 13 12 13.5409 12 14.2083V40.7917C12 41.4591 12.5426 42 13.2121 42H42.7475C43.417 42 43.9596 41.4591 43.9596 40.7917C43.9596 40.1243 43.417 39.5833 42.7475 39.5833ZM39.8939 18.5986H33.697C33.0275 18.5986 32.4848 18.0577 32.4848 17.3903C32.4848 16.7229 33.0275 16.182 33.697 16.182H42.7878C43.4573 16.182 44 16.7229 44 17.3903V17.4197C44 17.4269 44 17.4342 44 17.4415V26.4528C44 27.1202 43.4574 27.6615 42.7879 27.6615C42.1184 27.6615 41.5758 27.1202 41.5758 26.4532V20.3396L33.5826 28.2757C33.1083 28.7458 32.3434 28.7454 31.8703 28.2737L29.2121 25.6243L19.2812 35.5237C19.0449 35.7598 18.7341 35.8778 18.4242 35.8778C18.1139 35.8778 17.8036 35.7598 17.5672 35.5237C17.0937 35.0521 17.0937 34.2868 17.5672 33.8152L28.3551 23.061C28.8287 22.5889 29.5955 22.5893 30.069 23.061L32.7288 25.7124L39.8939 18.5986Z" fill="#333333"/>
</svg>
